<svg xmlns="http://www.w3.org/2000/svg" xml:space="preserve" id="Layer_1" x="0" y="0" style="enable-background:new 0 0 433.96 79.7" version="1.1" viewBox="0 0 433.96 79.7"><style>.st0{fill:#fffdfd}</style><path d="M118.62 58.92c-4.57 3.47-9.61 5.69-15.25 6.58-14.11 2.23-29.12-7.01-33.39-20.64-6-19.15 5.99-38.38 25.91-40.55 21.57-2.36 37.95 17.49 33.26 37.54-.95 4.07-2.55 7.87-5.13 11.18-.81 1.05-.78 1.72.17 2.66 4.96 4.9 9.83 9.89 14.8 14.77 1.42 1.4 1.53 2.75.28 4.16-1.34 1.5-3.02 1.61-4.44.23-4.99-4.86-9.9-9.82-14.84-14.73-.39-.39-.83-.74-1.37-1.2zm-19.46.67c13.63 0 24.58-10.89 24.64-24.51a24.569 24.569 0 0 0-24.64-24.76c-13.64 0-24.57 10.88-24.61 24.52-.05 13.79 10.86 24.75 24.61 24.75zM41.67 55.64h-5.12c-.56-.64-.28-1.4-.29-2.09-.02-6.82.01-13.64-.02-20.45-.03-5.6-3.5-9.32-8.67-9.37-4.99-.05-9.19 4.04-9.29 9.33-.12 6.57-.04 13.15-.04 19.72v2.78h-5.26V19.8h5.24v5.39c2.93-4.65 6.64-6.71 11.42-6.48 4.71.22 8.36 2.36 10.69 6.57.3-.2.59-.28.69-.46 2.95-5.57 9.58-7.16 15.46-5.51 5.38 1.51 8.82 6.16 8.95 12.51.16 7.86.04 15.73.04 23.73h-5.16c-.51-.54-.22-1.3-.22-1.99-.03-6.74.08-13.47-.06-20.21-.14-7.07-4.9-10.87-11.34-9.27-4.22 1.05-6.95 4.84-7 9.94-.06 7.13-.02 14.26-.02 21.62zM356.16 56.09h-4.88v-5.2c-.42 0-.65-.06-.71.01-4.17 5.63-9.8 7.29-16.36 5.63-6.65-1.68-10.61-6.24-12.29-12.81-1.11-4.36-.96-8.7.51-12.94 2.12-6.14 6.22-10.13 12.78-11.29 6.38-1.13 10.84.68 15.53 6.52V4.69h5.42v51.4zm-17.66-3.8c4.54-.01 7.76-1.73 10.07-5.1 3.38-4.94 3.47-12.69.24-17.72-4.37-6.8-14.22-7.3-18.99-.82-3.77 5.12-4.04 10.85-1.59 16.57 1.96 4.56 5.68 6.89 10.27 7.07zM246.34 56.12h-5.46V24.69h-6.65v-4.46h6.49c.43-4.77-.96-9.86 3.29-13.34 3.57-2.93 7.93-2.29 12.28-2.33v4.79c-1.79 0-3.55-.07-5.31.02-3.13.16-4.55 1.57-4.7 4.71-.09 1.93-.02 3.86-.02 6.01h21.78v35.99h-5.21V24.85h-16.5c.01 10.36.01 20.71.01 31.27zM228.6 39.62h-28.81c-.18 6.63 3.16 11.16 9.05 12.44 6.35 1.38 11.5-1.35 14.14-7.65 1.59.37 3.22.74 4.85 1.12-.84 5.33-5.94 10.04-11.94 11.19-12.21 2.34-23.12-5.41-21.61-20.71 1.24-12.56 11.7-19.5 23.15-15.92 6.63 2.07 10.59 7.74 11.17 16.06.06 1.03 0 2.09 0 3.47zm-28.59-4.5h22.95c-.38-7.14-4.97-11.31-12.05-11.06-6.01.2-10.95 5.2-10.9 11.06zM400.04 39.66h-28.71c-.5 5.81 2.69 10.64 7.95 12.12 6.77 1.91 11.98-.57 15.28-7.37 1.6.38 3.23.78 4.86 1.17-1.98 7.72-9.83 12.6-18.28 11.45-11.02-1.5-17.07-10.38-15.25-22.39 1.73-11.44 11.95-17.95 22.91-14.58 6.61 2.03 10.5 7.46 11.23 15.74.1 1.2.01 2.4.01 3.86zm-28.58-4.54h22.95c-.37-7.13-4.96-11.31-12.05-11.06-6 .2-10.93 5.19-10.9 11.06zM312.4 56.13h-5.05c-.59-.64-.3-1.41-.31-2.09-.03-6.57.01-13.15-.02-19.72-.02-5.94-3.75-10-9.21-10.11-5.63-.11-10.14 4.33-10.19 10.17-.06 7.2-.01 14.4-.01 21.71h-5.3V20.26h5.19v4.75c.31 0 .55.05.58-.01 2.98-5.14 9.45-6.88 15.17-5.2 5.32 1.57 8.91 6.31 9.1 12.76.22 7.77.05 15.56.05 23.57zM151.52 56.15h-7.12c-4.41-11.86-8.84-23.8-13.33-35.91h5.79c3.59 10.24 7.16 20.44 10.92 31.17.46-1.04.76-1.62.98-2.22 3.01-8.63 6.75-20.4 9.58-29.08l3.64.04s1.71-.02 2.82-.02c-4.46 12.11-8.86 24.03-13.28 36.02zM415.22 56.14h-5.25V20.39c1.52-.48 3.2-.04 5.07-.25v5.62c2.9-4.66 6.8-7.07 12.44-6.5v5.04c-.45.49-1.06.32-1.58.28-7.02-.5-10.34 4-10.6 10.45-.25 6.15-.07 12.32-.08 18.48v2.63zM177.6 24.66h-6.71v-4.37h11.91v35.77h-5.2v-31.4zM184.32 9.81c.01 2.19-1.84 4.02-4.03 3.98-2.15-.04-3.77-1.71-3.79-3.91-.02-2.32 1.64-3.96 3.97-3.91 2.18.04 3.84 1.69 3.85 3.84z" class="st0"/><path d="M269.56 9.85c-.02 2.2-1.88 4.01-4.07 3.94-2.15-.07-3.75-1.76-3.75-3.95 0-2.32 1.68-3.94 4.01-3.87 2.18.06 3.82 1.74 3.81 3.88zM106.2 44.45c4.52.23 4.52.23 4.38 2.4-4.59 0-9.27.55-13.76-.14-5.91-.9-10.17-6.31-9.94-12.29.22-5.8 4.68-11.05 10.33-11.78 5.88-.76 12.14 3.09 13.3 8.57 1.02 4.87.42 9.51-4.31 13.24zm-7.28.12c5.5.02 9.9-4.37 9.88-9.85-.02-5.41-4.29-9.74-9.69-9.8-5.53-.07-9.94 4.22-10.01 9.73-.06 5.45 4.33 9.9 9.82 9.92z" class="st0"/><path d="M96.75 34.71c-.15 1.4-.93 2.22-2.18 2.24-1.29.03-2.13-.84-2.16-2.13-.03-1.41.85-2.34 2.25-2.28 1.23.05 1.98.94 2.09 2.17zM105.55 34.62c-.1 1.35-.79 2.22-2.06 2.33-1.31.11-2.18-.76-2.3-2-.14-1.41.79-2.36 2.14-2.42 1.25-.05 2 .86 2.22 2.09zM99.03 28.18c1.25.14 2.11.79 2.11 2.14 0 1.32-.78 2.13-2.1 2.16-1.44.03-2.33-.83-2.3-2.23.03-1.29.93-1.99 2.29-2.07zM101.18 38.99c-.06 1.37-.77 2.22-2.06 2.3-1.4.09-2.36-.75-2.38-2.16-.02-1.3.87-2.1 2.16-2.14 1.3-.04 2.07.73 2.28 2z" class="st0"/></svg>